# xmcd
#
# Track frame offsets: 
#        150
#        7687
#        21352
#        39197
#        47535
#        67047
#        79815
#        93530
#        104765
#        118355
#        131802
#        145192
#        158892
#        171460
#        180280
#        191577
#        202155
#        213285
#        222482
#        233555
#        244027
#        253047
#        269950
#        286177
#        307697
#
# Disc length: 4283 seconds
#
# Revision: 5
# Processed by: cddbd v1.5.2PL0 Copyright (c) Steve Scherf et al.
# Submitted via: ExactAudioCopy v1.0b4
#
DISCID=7110b919
DTITLE=Various Artist - Columbia Country Classics Vol. 3 Americana
DYEAR=1990
DGENRE=Country
TTITLE0=Fess Parker - Ballad Of Davy Crockett
TTITLE1=Johnny Cash - Don't Take Your Guns To Town
TTITLE2=Marty Robbins - Big Iron
TTITLE3=Johnny Western - The Ballad Of Paladin
TTITLE4=Marty Robbins - El Paso
TTITLE5=Billy Walker - Cross The Brazos At Waco
TTITLE6=Lefty Frizzell - Long Black Veil
TTITLE7=Stonewall Jackson - Life To Go
TTITLE8=Jimmy Dean - Big Bad John
TTITLE9=Johnny Cash - Tennessee Flat Top Box
TTITLE10=Claude King - Wolverton Mountain
TTITLE11=Lefty Frizzell - Saginaw Michigan
TTITLE12=Johnny Horton - North To Alaska
TTITLE13=Hawkshaw Hawkins - Twenty Miles From Shore
TTITLE14=Johnny Horton - The Battle Of New Orleans
TTITLE15=Hawkshaw Hawkins - Soldier's Joy
TTITLE16=Stonewall Jackson - Waterloo
TTITLE17=Lester Flatt Earl Scruggs And The Foggy Mountain Boys - The B
TTITLE17=allad Of Jed Clampett
TTITLE18=Little Jimmy Dickens - May The Bird Of Paradise Fly Up Your N
TTITLE18=ose
TTITLE19=Statler Brother - Flowers On The Wall
TTITLE20=Tommy Collins - If You Can't Bite Don't Growl
TTITLE21=Johnny Cash - A Boy Named Sue
TTITLE22=Charlie Daniels Band - The Devil Went Down To Georgia
TTITLE23=Merle Haggard And Willie Nelson - Pancho And Lefty
TTITLE24=Waylon Jennings Willie Nelson Johnny Cash And Kris Kristoffer
TTITLE24=son - Highwayman
EXTD=
EXTT0=
EXTT1=
EXTT2=
EXTT3=
EXTT4=
EXTT5=
EXTT6=
EXTT7=
EXTT8=
EXTT9=
EXTT10=
EXTT11=
EXTT12=
EXTT13=
EXTT14=
EXTT15=
EXTT16=
EXTT17=
EXTT18=
EXTT19=
EXTT20=
EXTT21=
EXTT22=
EXTT23=
EXTT24=
PLAYORDER=
